<?xml version="1.0" encoding="utf-8" standalone="no"?>
<!DOCTYPE svg PUBLIC "-//W3C//DTD SVG 1.1//EN"
  "http://www.w3.org/Graphics/SVG/1.1/DTD/svg11.dtd">
<svg xmlns:xlink="http://www.w3.org/1999/xlink" width="460.8pt" height="345.6pt" viewBox="0 0 460.8 345.6" xmlns="http://www.w3.org/2000/svg" version="1.1">
 <metadata>
  <rdf:RDF xmlns:dc="http://purl.org/dc/elements/1.1/" xmlns:cc="http://creativecommons.org/ns#" xmlns:rdf="http://www.w3.org/1999/02/22-rdf-syntax-ns#">
   <cc:Work>
    <dc:type rdf:resource="http://purl.org/dc/dcmitype/StillImage"/>
    <dc:date>2026-02-02T16:03:05.464627</dc:date>
    <dc:format>image/svg+xml</dc:format>
    <dc:creator>
     <cc:Agent>
      <dc:title>Matplotlib v3.10.8, https://matplotlib.org/</dc:title>
     </cc:Agent>
    </dc:creator>
   </cc:Work>
  </rdf:RDF>
 </metadata>
 <defs>
  <style type="text/css">*{stroke-linejoin: round; stroke-linecap: butt}</style>
 </defs>
 <g id="figure_1">
  <g id="patch_1">
   <path d="M 0 345.6 
L 460.8 345.6 
L 460.8 0 
L 0 0 
z
" style="fill: #ffffff"/>
  </g>
  <g id="axes_1">
   <g id="patch_2">
    <path d="M 57.6 307.584 
L 414.72 307.584 
L 414.72 41.472 
L 57.6 41.472 
z
" style="fill: #ffffff"/>
   </g>
   <g id="patch_3">
    <path d="M 73.832727 307.584 
L 75.997091 307.584 
L 75.997091 307.475394 
L 73.832727 307.475394 
z
" clip-path="url(#p3beb2ff66a)" style="fill: #1f77b4; stroke: #000000; stroke-linejoin: miter"/>
   </g>
   <g id="patch_4">
    <path d="M 75.997091 307.584 
L 78.161455 307.584 
L 78.161455 307.584 
L 75.997091 307.584 
z
" clip-path="url(#p3beb2ff66a)" style="fill: #1f77b4; stroke: #000000; stroke-linejoin: miter"/>
   </g>
   <g id="patch_5">
    <path d="M 78.161455 307.584 
L 80.325818 307.584 
L 80.325818 307.584 
L 78.161455 307.584 
z
" clip-path="url(#p3beb2ff66a)" style="fill: #1f77b4; stroke: #000000; stroke-linejoin: miter"/>
   </g>
   <g id="patch_6">
    <path d="M 80.325818 307.584 
L 82.490182 307.584 
L 82.490182 307.584 
L 80.325818 307.584 
z
" clip-path="url(#p3beb2ff66a)" style="fill: #1f77b4; stroke: #000000; stroke-linejoin: miter"/>
   </g>
   <g id="patch_7">
    <path d="M 82.490182 307.584 
L 84.654545 307.584 
L 84.654545 307.584 
L 82.490182 307.584 
z
" clip-path="url(#p3beb2ff66a)" style="fill: #1f77b4; stroke: #000000; stroke-linejoin: miter"/>
   </g>
   <g id="patch_8">
    <path d="M 84.654545 307.584 
L 86.818909 307.584 
L 86.818909 307.584 
L 84.654545 307.584 
z
" clip-path="url(#p3beb2ff66a)" style="fill: #1f77b4; stroke: #000000; stroke-linejoin: miter"/>
   </g>
   <g id="patch_9">
    <path d="M 86.818909 307.584 
L 88.983273 307.584 
L 88.983273 307.584 
L 86.818909 307.584 
z
" clip-path="url(#p3beb2ff66a)" style="fill: #1f77b4; stroke: #000000; stroke-linejoin: miter"/>
   </g>
   <g id="patch_10">
    <path d="M 88.983273 307.584 
L 91.147636 307.584 
L 91.147636 307.584 
L 88.983273 307.584 
z
" clip-path="url(#p3beb2ff66a)" style="fill: #1f77b4; stroke: #000000; stroke-linejoin: miter"/>
   </g>
   <g id="patch_11">
    <path d="M 91.147636 307.584 
L 93.312 307.584 
L 93.312 307.580912 
L 91.147636 307.580912 
z
" clip-path="url(#p3beb2ff66a)" style="fill: #1f77b4; stroke: #000000; stroke-linejoin: miter"/>
   </g>
   <g id="patch_12">
    <path d="M 93.312 307.584 
L 95.476364 307.584 
L 95.476364 307.579882 
L 93.312 307.579882 
z
" clip-path="url(#p3beb2ff66a)" style="fill: #1f77b4; stroke: #000000; stroke-linejoin: miter"/>
   </g>
   <g id="patch_13">
    <path d="M 95.476364 307.584 
L 97.640727 307.584 
L 97.640727 307.582456 
L 95.476364 307.582456 
z
" clip-path="url(#p3beb2ff66a)" style="fill: #1f77b4; stroke: #000000; stroke-linejoin: miter"/>
   </g>
   <g id="patch_14">
    <path d="M 97.640727 307.584 
L 99.805091 307.584 
L 99.805091 307.584 
L 97.640727 307.584 
z
" clip-path="url(#p3beb2ff66a)" style="fill: #1f77b4; stroke: #000000; stroke-linejoin: miter"/>
   </g>
   <g id="patch_15">
    <path d="M 99.805091 307.584 
L 101.969455 307.584 
L 101.969455 307.584 
L 99.805091 307.584 
z
" clip-path="url(#p3beb2ff66a)" style="fill: #1f77b4; stroke: #000000; stroke-linejoin: miter"/>
   </g>
   <g id="patch_16">
    <path d="M 101.969455 307.584 
L 104.133818 307.584 
L 104.133818 307.582971 
L 101.969455 307.582971 
z
" clip-path="url(#p3beb2ff66a)" style="fill: #1f77b4; stroke: #000000; stroke-linejoin: miter"/>
   </g>
   <g id="patch_17">
    <path d="M 104.133818 307.584 
L 106.298182 307.584 
L 106.298182 307.582971 
L 104.133818 307.582971 
z
" clip-path="url(#p3beb2ff66a)" style="fill: #1f77b4; stroke: #000000; stroke-linejoin: miter"/>
   </g>
   <g id="patch_18">
    <path d="M 106.298182 307.584 
L 108.462545 307.584 
L 108.462545 307.582971 
L 106.298182 307.582971 
z
" clip-path="url(#p3beb2ff66a)" style="fill: #1f77b4; stroke: #000000; stroke-linejoin: miter"/>
   </g>
   <g id="patch_19">
    <path d="M 108.462545 307.584 
L 110.626909 307.584 
L 110.626909 307.582971 
L 108.462545 307.582971 
z
" clip-path="url(#p3beb2ff66a)" style="fill: #1f77b4; stroke: #000000; stroke-linejoin: miter"/>
   </g>
   <g id="patch_20">
    <path d="M 110.626909 307.584 
L 112.791273 307.584 
L 112.791273 307.582971 
L 110.626909 307.582971 
z
" clip-path="url(#p3beb2ff66a)" style="fill: #1f77b4; stroke: #000000; stroke-linejoin: miter"/>
   </g>
   <g id="patch_21">
    <path d="M 112.791273 307.584 
L 114.955636 307.584 
L 114.955636 307.580912 
L 112.791273 307.580912 
z
" clip-path="url(#p3beb2ff66a)" style="fill: #1f77b4; stroke: #000000; stroke-linejoin: miter"/>
   </g>
   <g id="patch_22">
    <path d="M 114.955636 307.584 
L 117.12 307.584 
L 117.12 307.581941 
L 114.955636 307.581941 
z
" clip-path="url(#p3beb2ff66a)" style="fill: #1f77b4; stroke: #000000; stroke-linejoin: miter"/>
   </g>
   <g id="patch_23">
    <path d="M 117.12 307.584 
L 119.284364 307.584 
L 119.284364 307.582971 
L 117.12 307.582971 
z
" clip-path="url(#p3beb2ff66a)" style="fill: #1f77b4; stroke: #000000; stroke-linejoin: miter"/>
   </g>
   <g id="patch_24">
    <path d="M 119.284364 307.584 
L 121.448727 307.584 
L 121.448727 307.581941 
L 119.284364 307.581941 
z
" clip-path="url(#p3beb2ff66a)" style="fill: #1f77b4; stroke: #000000; stroke-linejoin: miter"/>
   </g>
   <g id="patch_25">
    <path d="M 121.448727 307.584 
L 123.613091 307.584 
L 123.613091 307.582456 
L 121.448727 307.582456 
z
" clip-path="url(#p3beb2ff66a)" style="fill: #1f77b4; stroke: #000000; stroke-linejoin: miter"/>
   </g>
   <g id="patch_26">
    <path d="M 123.613091 307.584 
L 125.777455 307.584 
L 125.777455 307.581941 
L 123.613091 307.581941 
z
" clip-path="url(#p3beb2ff66a)" style="fill: #1f77b4; stroke: #000000; stroke-linejoin: miter"/>
   </g>
   <g id="patch_27">
    <path d="M 125.777455 307.584 
L 127.941818 307.584 
L 127.941818 307.583485 
L 125.777455 307.583485 
z
" clip-path="url(#p3beb2ff66a)" style="fill: #1f77b4; stroke: #000000; stroke-linejoin: miter"/>
   </g>
   <g id="patch_28">
    <path d="M 127.941818 307.584 
L 130.106182 307.584 
L 130.106182 307.579882 
L 127.941818 307.579882 
z
" clip-path="url(#p3beb2ff66a)" style="fill: #1f77b4; stroke: #000000; stroke-linejoin: miter"/>
   </g>
   <g id="patch_29">
    <path d="M 130.106182 307.584 
L 132.270545 307.584 
L 132.270545 307.581426 
L 130.106182 307.581426 
z
" clip-path="url(#p3beb2ff66a)" style="fill: #1f77b4; stroke: #000000; stroke-linejoin: miter"/>
   </g>
   <g id="patch_30">
    <path d="M 132.270545 307.584 
L 134.434909 307.584 
L 134.434909 307.582971 
L 132.270545 307.582971 
z
" clip-path="url(#p3beb2ff66a)" style="fill: #1f77b4; stroke: #000000; stroke-linejoin: miter"/>
   </g>
   <g id="patch_31">
    <path d="M 134.434909 307.584 
L 136.599273 307.584 
L 136.599273 307.579882 
L 134.434909 307.579882 
z
" clip-path="url(#p3beb2ff66a)" style="fill: #1f77b4; stroke: #000000; stroke-linejoin: miter"/>
   </g>
   <g id="patch_32">
    <path d="M 136.599273 307.584 
L 138.763636 307.584 
L 138.763636 307.581426 
L 136.599273 307.581426 
z
" clip-path="url(#p3beb2ff66a)" style="fill: #1f77b4; stroke: #000000; stroke-linejoin: miter"/>
   </g>
   <g id="patch_33">
    <path d="M 138.763636 307.584 
L 140.928 307.584 
L 140.928 307.580912 
L 138.763636 307.580912 
z
" clip-path="url(#p3beb2ff66a)" style="fill: #1f77b4; stroke: #000000; stroke-linejoin: miter"/>
   </g>
   <g id="patch_34">
    <path d="M 140.928 307.584 
L 143.092364 307.584 
L 143.092364 307.582456 
L 140.928 307.582456 
z
" clip-path="url(#p3beb2ff66a)" style="fill: #1f77b4; stroke: #000000; stroke-linejoin: miter"/>
   </g>
   <g id="patch_35">
    <path d="M 143.092364 307.584 
L 145.256727 307.584 
L 145.256727 307.580397 
L 143.092364 307.580397 
z
" clip-path="url(#p3beb2ff66a)" style="fill: #1f77b4; stroke: #000000; stroke-linejoin: miter"/>
   </g>
   <g id="patch_36">
    <path d="M 145.256727 307.584 
L 147.421091 307.584 
L 147.421091 307.577823 
L 145.256727 307.577823 
z
" clip-path="url(#p3beb2ff66a)" style="fill: #1f77b4; stroke: #000000; stroke-linejoin: miter"/>
   </g>
   <g id="patch_37">
    <path d="M 147.421091 307.584 
L 149.585455 307.584 
L 149.585455 307.583485 
L 147.421091 307.583485 
z
" clip-path="url(#p3beb2ff66a)" style="fill: #1f77b4; stroke: #000000; stroke-linejoin: miter"/>
   </g>
   <g id="patch_38">
    <path d="M 149.585455 307.584 
L 151.749818 307.584 
L 151.749818 307.574735 
L 149.585455 307.574735 
z
" clip-path="url(#p3beb2ff66a)" style="fill: #1f77b4; stroke: #000000; stroke-linejoin: miter"/>
   </g>
   <g id="patch_39">
    <path d="M 151.749818 307.584 
L 153.914182 307.584 
L 153.914182 307.577823 
L 151.749818 307.577823 
z
" clip-path="url(#p3beb2ff66a)" style="fill: #1f77b4; stroke: #000000; stroke-linejoin: miter"/>
   </g>
   <g id="patch_40">
    <path d="M 153.914182 307.584 
L 156.078545 307.584 
L 156.078545 307.577823 
L 153.914182 307.577823 
z
" clip-path="url(#p3beb2ff66a)" style="fill: #1f77b4; stroke: #000000; stroke-linejoin: miter"/>
   </g>
   <g id="patch_41">
    <path d="M 156.078545 307.584 
L 158.242909 307.584 
L 158.242909 307.575764 
L 156.078545 307.575764 
z
" clip-path="url(#p3beb2ff66a)" style="fill: #1f77b4; stroke: #000000; stroke-linejoin: miter"/>
   </g>
   <g id="patch_42">
    <path d="M 158.242909 307.584 
L 160.407273 307.584 
L 160.407273 307.576794 
L 158.242909 307.576794 
z
" clip-path="url(#p3beb2ff66a)" style="fill: #1f77b4; stroke: #000000; stroke-linejoin: miter"/>
   </g>
   <g id="patch_43">
    <path d="M 160.407273 307.584 
L 162.571636 307.584 
L 162.571636 307.571132 
L 160.407273 307.571132 
z
" clip-path="url(#p3beb2ff66a)" style="fill: #1f77b4; stroke: #000000; stroke-linejoin: miter"/>
   </g>
   <g id="patch_44">
    <path d="M 162.571636 307.584 
L 164.736 307.584 
L 164.736 307.569588 
L 162.571636 307.569588 
z
" clip-path="url(#p3beb2ff66a)" style="fill: #1f77b4; stroke: #000000; stroke-linejoin: miter"/>
   </g>
   <g id="patch_45">
    <path d="M 164.736 307.584 
L 166.900364 307.584 
L 166.900364 307.564441 
L 164.736 307.564441 
z
" clip-path="url(#p3beb2ff66a)" style="fill: #1f77b4; stroke: #000000; stroke-linejoin: miter"/>
   </g>
   <g id="patch_46">
    <path d="M 166.900364 307.584 
L 169.064727 307.584 
L 169.064727 307.564441 
L 166.900364 307.564441 
z
" clip-path="url(#p3beb2ff66a)" style="fill: #1f77b4; stroke: #000000; stroke-linejoin: miter"/>
   </g>
   <g id="patch_47">
    <path d="M 169.064727 307.584 
L 171.229091 307.584 
L 171.229091 307.55672 
L 169.064727 307.55672 
z
" clip-path="url(#p3beb2ff66a)" style="fill: #1f77b4; stroke: #000000; stroke-linejoin: miter"/>
   </g>
   <g id="patch_48">
    <path d="M 171.229091 307.584 
L 173.393455 307.584 
L 173.393455 307.523263 
L 171.229091 307.523263 
z
" clip-path="url(#p3beb2ff66a)" style="fill: #1f77b4; stroke: #000000; stroke-linejoin: miter"/>
   </g>
   <g id="patch_49">
    <path d="M 173.393455 307.584 
L 175.557818 307.584 
L 175.557818 307.53716 
L 173.393455 307.53716 
z
" clip-path="url(#p3beb2ff66a)" style="fill: #1f77b4; stroke: #000000; stroke-linejoin: miter"/>
   </g>
   <g id="patch_50">
    <path d="M 175.557818 307.584 
L 177.722182 307.584 
L 177.722182 307.569588 
L 175.557818 307.569588 
z
" clip-path="url(#p3beb2ff66a)" style="fill: #1f77b4; stroke: #000000; stroke-linejoin: miter"/>
   </g>
   <g id="patch_51">
    <path d="M 177.722182 307.584 
L 179.886545 307.584 
L 179.886545 307.552602 
L 177.722182 307.552602 
z
" clip-path="url(#p3beb2ff66a)" style="fill: #1f77b4; stroke: #000000; stroke-linejoin: miter"/>
   </g>
   <g id="patch_52">
    <path d="M 179.886545 307.584 
L 182.050909 307.584 
L 182.050909 307.544881 
L 179.886545 307.544881 
z
" clip-path="url(#p3beb2ff66a)" style="fill: #1f77b4; stroke: #000000; stroke-linejoin: miter"/>
   </g>
   <g id="patch_53">
    <path d="M 182.050909 307.584 
L 184.215273 307.584 
L 184.215273 307.52841 
L 182.050909 307.52841 
z
" clip-path="url(#p3beb2ff66a)" style="fill: #1f77b4; stroke: #000000; stroke-linejoin: miter"/>
   </g>
   <g id="patch_54">
    <path d="M 184.215273 307.584 
L 186.379636 307.584 
L 186.379636 307.504733 
L 184.215273 307.504733 
z
" clip-path="url(#p3beb2ff66a)" style="fill: #1f77b4; stroke: #000000; stroke-linejoin: miter"/>
   </g>
   <g id="patch_55">
    <path d="M 186.379636 307.584 
L 188.544 307.584 
L 188.544 307.492894 
L 186.379636 307.492894 
z
" clip-path="url(#p3beb2ff66a)" style="fill: #1f77b4; stroke: #000000; stroke-linejoin: miter"/>
   </g>
   <g id="patch_56">
    <path d="M 188.544 307.584 
L 190.708364 307.584 
L 190.708364 307.445025 
L 188.544 307.445025 
z
" clip-path="url(#p3beb2ff66a)" style="fill: #1f77b4; stroke: #000000; stroke-linejoin: miter"/>
   </g>
   <g id="patch_57">
    <path d="M 190.708364 307.584 
L 192.872727 307.584 
L 192.872727 307.442966 
L 190.708364 307.442966 
z
" clip-path="url(#p3beb2ff66a)" style="fill: #1f77b4; stroke: #000000; stroke-linejoin: miter"/>
   </g>
   <g id="patch_58">
    <path d="M 192.872727 307.584 
L 195.037091 307.584 
L 195.037091 307.419289 
L 192.872727 307.419289 
z
" clip-path="url(#p3beb2ff66a)" style="fill: #1f77b4; stroke: #000000; stroke-linejoin: miter"/>
   </g>
   <g id="patch_59">
    <path d="M 195.037091 307.584 
L 197.201455 307.584 
L 197.201455 307.402818 
L 195.037091 307.402818 
z
" clip-path="url(#p3beb2ff66a)" style="fill: #1f77b4; stroke: #000000; stroke-linejoin: miter"/>
   </g>
   <g id="patch_60">
    <path d="M 197.201455 307.584 
L 199.365818 307.584 
L 199.365818 307.274652 
L 197.201455 307.274652 
z
" clip-path="url(#p3beb2ff66a)" style="fill: #1f77b4; stroke: #000000; stroke-linejoin: miter"/>
   </g>
   <g id="patch_61">
    <path d="M 199.365818 307.584 
L 201.530182 307.584 
L 201.530182 307.253548 
L 199.365818 307.253548 
z
" clip-path="url(#p3beb2ff66a)" style="fill: #1f77b4; stroke: #000000; stroke-linejoin: miter"/>
   </g>
   <g id="patch_62">
    <path d="M 201.530182 307.584 
L 203.694545 307.584 
L 203.694545 307.091925 
L 201.530182 307.091925 
z
" clip-path="url(#p3beb2ff66a)" style="fill: #1f77b4; stroke: #000000; stroke-linejoin: miter"/>
   </g>
   <g id="patch_63">
    <path d="M 203.694545 307.584 
L 205.858909 307.584 
L 205.858909 307.098617 
L 203.694545 307.098617 
z
" clip-path="url(#p3beb2ff66a)" style="fill: #1f77b4; stroke: #000000; stroke-linejoin: miter"/>
   </g>
   <g id="patch_64">
    <path d="M 205.858909 307.584 
L 208.023273 307.584 
L 208.023273 306.912802 
L 205.858909 306.912802 
z
" clip-path="url(#p3beb2ff66a)" style="fill: #1f77b4; stroke: #000000; stroke-linejoin: miter"/>
   </g>
   <g id="patch_65">
    <path d="M 208.023273 307.584 
L 210.187636 307.584 
L 210.187636 306.665221 
L 208.023273 306.665221 
z
" clip-path="url(#p3beb2ff66a)" style="fill: #1f77b4; stroke: #000000; stroke-linejoin: miter"/>
   </g>
   <g id="patch_66">
    <path d="M 210.187636 307.584 
L 212.352 307.584 
L 212.352 306.457788 
L 210.187636 306.457788 
z
" clip-path="url(#p3beb2ff66a)" style="fill: #1f77b4; stroke: #000000; stroke-linejoin: miter"/>
   </g>
   <g id="patch_67">
    <path d="M 212.352 307.584 
L 214.516364 307.584 
L 214.516364 306.13866 
L 212.352 306.13866 
z
" clip-path="url(#p3beb2ff66a)" style="fill: #1f77b4; stroke: #000000; stroke-linejoin: miter"/>
   </g>
   <g id="patch_68">
    <path d="M 214.516364 307.584 
L 216.680727 307.584 
L 216.680727 305.663571 
L 214.516364 305.663571 
z
" clip-path="url(#p3beb2ff66a)" style="fill: #1f77b4; stroke: #000000; stroke-linejoin: miter"/>
   </g>
   <g id="patch_69">
    <path d="M 216.680727 307.584 
L 218.845091 307.584 
L 218.845091 305.224513 
L 216.680727 305.224513 
z
" clip-path="url(#p3beb2ff66a)" style="fill: #1f77b4; stroke: #000000; stroke-linejoin: miter"/>
   </g>
   <g id="patch_70">
    <path d="M 218.845091 307.584 
L 221.009455 307.584 
L 221.009455 304.304704 
L 218.845091 304.304704 
z
" clip-path="url(#p3beb2ff66a)" style="fill: #1f77b4; stroke: #000000; stroke-linejoin: miter"/>
   </g>
   <g id="patch_71">
    <path d="M 221.009455 307.584 
L 223.173818 307.584 
L 223.173818 303.83013 
L 221.009455 303.83013 
z
" clip-path="url(#p3beb2ff66a)" style="fill: #1f77b4; stroke: #000000; stroke-linejoin: miter"/>
   </g>
   <g id="patch_72">
    <path d="M 223.173818 307.584 
L 225.338182 307.584 
L 225.338182 302.905174 
L 223.173818 302.905174 
z
" clip-path="url(#p3beb2ff66a)" style="fill: #1f77b4; stroke: #000000; stroke-linejoin: miter"/>
   </g>
   <g id="patch_73">
    <path d="M 225.338182 307.584 
L 227.502545 307.584 
L 227.502545 301.761461 
L 225.338182 301.761461 
z
" clip-path="url(#p3beb2ff66a)" style="fill: #1f77b4; stroke: #000000; stroke-linejoin: miter"/>
   </g>
   <g id="patch_74">
    <path d="M 227.502545 307.584 
L 229.666909 307.584 
L 229.666909 299.461167 
L 227.502545 299.461167 
z
" clip-path="url(#p3beb2ff66a)" style="fill: #1f77b4; stroke: #000000; stroke-linejoin: miter"/>
   </g>
   <g id="patch_75">
    <path d="M 229.666909 307.584 
L 231.831273 307.584 
L 231.831273 297.668389 
L 229.666909 297.668389 
z
" clip-path="url(#p3beb2ff66a)" style="fill: #1f77b4; stroke: #000000; stroke-linejoin: miter"/>
   </g>
   <g id="patch_76">
    <path d="M 231.831273 307.584 
L 233.995636 307.584 
L 233.995636 298.298924 
L 231.831273 298.298924 
z
" clip-path="url(#p3beb2ff66a)" style="fill: #1f77b4; stroke: #000000; stroke-linejoin: miter"/>
   </g>
   <g id="patch_77">
    <path d="M 233.995636 307.584 
L 236.16 307.584 
L 236.16 295.799433 
L 233.995636 295.799433 
z
" clip-path="url(#p3beb2ff66a)" style="fill: #1f77b4; stroke: #000000; stroke-linejoin: miter"/>
   </g>
   <g id="patch_78">
    <path d="M 236.16 307.584 
L 238.324364 307.584 
L 238.324364 291.850998 
L 236.16 291.850998 
z
" clip-path="url(#p3beb2ff66a)" style="fill: #1f77b4; stroke: #000000; stroke-linejoin: miter"/>
   </g>
   <g id="patch_79">
    <path d="M 238.324364 307.584 
L 240.488727 307.584 
L 240.488727 285.923971 
L 238.324364 285.923971 
z
" clip-path="url(#p3beb2ff66a)" style="fill: #1f77b4; stroke: #000000; stroke-linejoin: miter"/>
   </g>
   <g id="patch_80">
    <path d="M 240.488727 307.584 
L 242.653091 307.584 
L 242.653091 282.738869 
L 240.488727 282.738869 
z
" clip-path="url(#p3beb2ff66a)" style="fill: #1f77b4; stroke: #000000; stroke-linejoin: miter"/>
   </g>
   <g id="patch_81">
    <path d="M 242.653091 307.584 
L 244.817455 307.584 
L 244.817455 272.217945 
L 242.653091 272.217945 
z
" clip-path="url(#p3beb2ff66a)" style="fill: #1f77b4; stroke: #000000; stroke-linejoin: miter"/>
   </g>
   <g id="patch_82">
    <path d="M 244.817455 307.584 
L 246.981818 307.584 
L 246.981818 265.965613 
L 244.817455 265.965613 
z
" clip-path="url(#p3beb2ff66a)" style="fill: #1f77b4; stroke: #000000; stroke-linejoin: miter"/>
   </g>
   <g id="patch_83">
    <path d="M 246.981818 307.584 
L 249.146182 307.584 
L 249.146182 260.653164 
L 246.981818 260.653164 
z
" clip-path="url(#p3beb2ff66a)" style="fill: #1f77b4; stroke: #000000; stroke-linejoin: miter"/>
   </g>
   <g id="patch_84">
    <path d="M 249.146182 307.584 
L 251.310545 307.584 
L 251.310545 251.643465 
L 249.146182 251.643465 
z
" clip-path="url(#p3beb2ff66a)" style="fill: #1f77b4; stroke: #000000; stroke-linejoin: miter"/>
   </g>
   <g id="patch_85">
    <path d="M 251.310545 307.584 
L 253.474909 307.584 
L 253.474909 227.560637 
L 251.310545 227.560637 
z
" clip-path="url(#p3beb2ff66a)" style="fill: #1f77b4; stroke: #000000; stroke-linejoin: miter"/>
   </g>
   <g id="patch_86">
    <path d="M 253.474909 307.584 
L 255.639273 307.584 
L 255.639273 213.459305 
L 253.474909 213.459305 
z
" clip-path="url(#p3beb2ff66a)" style="fill: #1f77b4; stroke: #000000; stroke-linejoin: miter"/>
   </g>
   <g id="patch_87">
    <path d="M 255.639273 307.584 
L 257.803636 307.584 
L 257.803636 205.730749 
L 255.639273 205.730749 
z
" clip-path="url(#p3beb2ff66a)" style="fill: #1f77b4; stroke: #000000; stroke-linejoin: miter"/>
   </g>
   <g id="patch_88">
    <path d="M 257.803636 307.584 
L 259.968 307.584 
L 259.968 170.135643 
L 257.803636 170.135643 
z
" clip-path="url(#p3beb2ff66a)" style="fill: #1f77b4; stroke: #000000; stroke-linejoin: miter"/>
   </g>
   <g id="patch_89">
    <path d="M 259.968 307.584 
L 262.132364 307.584 
L 262.132364 144.657918 
L 259.968 144.657918 
z
" clip-path="url(#p3beb2ff66a)" style="fill: #1f77b4; stroke: #000000; stroke-linejoin: miter"/>
   </g>
   <g id="patch_90">
    <path d="M 262.132364 307.584 
L 264.296727 307.584 
L 264.296727 122.925313 
L 262.132364 122.925313 
z
" clip-path="url(#p3beb2ff66a)" style="fill: #1f77b4; stroke: #000000; stroke-linejoin: miter"/>
   </g>
   <g id="patch_91">
    <path d="M 264.296727 307.584 
L 266.461091 307.584 
L 266.461091 91.865939 
L 264.296727 91.865939 
z
" clip-path="url(#p3beb2ff66a)" style="fill: #1f77b4; stroke: #000000; stroke-linejoin: miter"/>
   </g>
   <g id="patch_92">
    <path d="M 266.461091 307.584 
L 268.625455 307.584 
L 268.625455 63.380177 
L 266.461091 63.380177 
z
" clip-path="url(#p3beb2ff66a)" style="fill: #1f77b4; stroke: #000000; stroke-linejoin: miter"/>
   </g>
   <g id="patch_93">
    <path d="M 268.625455 307.584 
L 270.789818 307.584 
L 270.789818 54.144 
L 268.625455 54.144 
z
" clip-path="url(#p3beb2ff66a)" style="fill: #1f77b4; stroke: #000000; stroke-linejoin: miter"/>
   </g>
   <g id="patch_94">
    <path d="M 270.789818 307.584 
L 272.954182 307.584 
L 272.954182 113.677297 
L 270.789818 113.677297 
z
" clip-path="url(#p3beb2ff66a)" style="fill: #1f77b4; stroke: #000000; stroke-linejoin: miter"/>
   </g>
   <g id="patch_95">
    <path d="M 272.954182 307.584 
L 275.118545 307.584 
L 275.118545 287.799104 
L 272.954182 287.799104 
z
" clip-path="url(#p3beb2ff66a)" style="fill: #1f77b4; stroke: #000000; stroke-linejoin: miter"/>
   </g>
   <g id="patch_96">
    <path d="M 275.118545 307.584 
L 277.282909 307.584 
L 277.282909 307.565985 
L 275.118545 307.565985 
z
" clip-path="url(#p3beb2ff66a)" style="fill: #1f77b4; stroke: #000000; stroke-linejoin: miter"/>
   </g>
   <g id="patch_97">
    <path d="M 277.282909 307.584 
L 279.447273 307.584 
L 279.447273 307.564955 
L 277.282909 307.564955 
z
" clip-path="url(#p3beb2ff66a)" style="fill: #1f77b4; stroke: #000000; stroke-linejoin: miter"/>
   </g>
   <g id="patch_98">
    <path d="M 279.447273 307.584 
L 281.611636 307.584 
L 281.611636 307.562382 
L 279.447273 307.562382 
z
" clip-path="url(#p3beb2ff66a)" style="fill: #1f77b4; stroke: #000000; stroke-linejoin: miter"/>
   </g>
   <g id="patch_99">
    <path d="M 281.611636 307.584 
L 283.776 307.584 
L 283.776 307.559293 
L 281.611636 307.559293 
z
" clip-path="url(#p3beb2ff66a)" style="fill: #1f77b4; stroke: #000000; stroke-linejoin: miter"/>
   </g>
   <g id="patch_100">
    <path d="M 283.776 307.584 
L 285.940364 307.584 
L 285.940364 307.559808 
L 283.776 307.559808 
z
" clip-path="url(#p3beb2ff66a)" style="fill: #1f77b4; stroke: #000000; stroke-linejoin: miter"/>
   </g>
   <g id="patch_101">
    <path d="M 285.940364 307.584 
L 288.104727 307.584 
L 288.104727 307.564441 
L 285.940364 307.564441 
z
" clip-path="url(#p3beb2ff66a)" style="fill: #1f77b4; stroke: #000000; stroke-linejoin: miter"/>
   </g>
   <g id="patch_102">
    <path d="M 288.104727 307.584 
L 290.269091 307.584 
L 290.269091 307.558264 
L 288.104727 307.558264 
z
" clip-path="url(#p3beb2ff66a)" style="fill: #1f77b4; stroke: #000000; stroke-linejoin: miter"/>
   </g>
   <g id="patch_103">
    <path d="M 290.269091 307.584 
L 292.433455 307.584 
L 292.433455 307.552087 
L 290.269091 307.552087 
z
" clip-path="url(#p3beb2ff66a)" style="fill: #1f77b4; stroke: #000000; stroke-linejoin: miter"/>
   </g>
   <g id="patch_104">
    <path d="M 292.433455 307.584 
L 294.597818 307.584 
L 294.597818 307.55672 
L 292.433455 307.55672 
z
" clip-path="url(#p3beb2ff66a)" style="fill: #1f77b4; stroke: #000000; stroke-linejoin: miter"/>
   </g>
   <g id="patch_105">
    <path d="M 294.597818 307.584 
L 296.762182 307.584 
L 296.762182 307.558264 
L 294.597818 307.558264 
z
" clip-path="url(#p3beb2ff66a)" style="fill: #1f77b4; stroke: #000000; stroke-linejoin: miter"/>
   </g>
   <g id="patch_106">
    <path d="M 296.762182 307.584 
L 298.926545 307.584 
L 298.926545 307.550543 
L 296.762182 307.550543 
z
" clip-path="url(#p3beb2ff66a)" style="fill: #1f77b4; stroke: #000000; stroke-linejoin: miter"/>
   </g>
   <g id="patch_107">
    <path d="M 298.926545 307.584 
L 301.090909 307.584 
L 301.090909 307.550028 
L 298.926545 307.550028 
z
" clip-path="url(#p3beb2ff66a)" style="fill: #1f77b4; stroke: #000000; stroke-linejoin: miter"/>
   </g>
   <g id="patch_108">
    <path d="M 301.090909 307.584 
L 303.255273 307.584 
L 303.255273 307.557749 
L 301.090909 307.557749 
z
" clip-path="url(#p3beb2ff66a)" style="fill: #1f77b4; stroke: #000000; stroke-linejoin: miter"/>
   </g>
   <g id="patch_109">
    <path d="M 303.255273 307.584 
L 305.419636 307.584 
L 305.419636 307.571647 
L 303.255273 307.571647 
z
" clip-path="url(#p3beb2ff66a)" style="fill: #1f77b4; stroke: #000000; stroke-linejoin: miter"/>
   </g>
   <g id="patch_110">
    <path d="M 305.419636 307.584 
L 307.584 307.584 
L 307.584 307.584 
L 305.419636 307.584 
z
" clip-path="url(#p3beb2ff66a)" style="fill: #1f77b4; stroke: #000000; stroke-linejoin: miter"/>
   </g>
   <g id="patch_111">
    <path d="M 307.584 307.584 
L 309.748364 307.584 
L 309.748364 307.584 
L 307.584 307.584 
z
" clip-path="url(#p3beb2ff66a)" style="fill: #1f77b4; stroke: #000000; stroke-linejoin: miter"/>
   </g>
   <g id="patch_112">
    <path d="M 309.748364 307.584 
L 311.912727 307.584 
L 311.912727 307.584 
L 309.748364 307.584 
z
" clip-path="url(#p3beb2ff66a)" style="fill: #1f77b4; stroke: #000000; stroke-linejoin: miter"/>
   </g>
   <g id="patch_113">
    <path d="M 311.912727 307.584 
L 314.077091 307.584 
L 314.077091 307.584 
L 311.912727 307.584 
z
" clip-path="url(#p3beb2ff66a)" style="fill: #1f77b4; stroke: #000000; stroke-linejoin: miter"/>
   </g>
   <g id="patch_114">
    <path d="M 314.077091 307.584 
L 316.241455 307.584 
L 316.241455 307.584 
L 314.077091 307.584 
z
" clip-path="url(#p3beb2ff66a)" style="fill: #1f77b4; stroke: #000000; stroke-linejoin: miter"/>
   </g>
   <g id="patch_115">
    <path d="M 316.241455 307.584 
L 318.405818 307.584 
L 318.405818 307.584 
L 316.241455 307.584 
z
" clip-path="url(#p3beb2ff66a)" style="fill: #1f77b4; stroke: #000000; stroke-linejoin: miter"/>
   </g>
   <g id="patch_116">
    <path d="M 318.405818 307.584 
L 320.570182 307.584 
L 320.570182 307.584 
L 318.405818 307.584 
z
" clip-path="url(#p3beb2ff66a)" style="fill: #1f77b4; stroke: #000000; stroke-linejoin: miter"/>
   </g>
   <g id="patch_117">
    <path d="M 320.570182 307.584 
L 322.734545 307.584 
L 322.734545 307.584 
L 320.570182 307.584 
z
" clip-path="url(#p3beb2ff66a)" style="fill: #1f77b4; stroke: #000000; stroke-linejoin: miter"/>
   </g>
   <g id="patch_118">
    <path d="M 322.734545 307.584 
L 324.898909 307.584 
L 324.898909 307.583485 
L 322.734545 307.583485 
z
" clip-path="url(#p3beb2ff66a)" style="fill: #1f77b4; stroke: #000000; stroke-linejoin: miter"/>
   </g>
   <g id="patch_119">
    <path d="M 324.898909 307.584 
L 327.063273 307.584 
L 327.063273 307.584 
L 324.898909 307.584 
z
" clip-path="url(#p3beb2ff66a)" style="fill: #1f77b4; stroke: #000000; stroke-linejoin: miter"/>
   </g>
   <g id="patch_120">
    <path d="M 327.063273 307.584 
L 329.227636 307.584 
L 329.227636 307.584 
L 327.063273 307.584 
z
" clip-path="url(#p3beb2ff66a)" style="fill: #1f77b4; stroke: #000000; stroke-linejoin: miter"/>
   </g>
   <g id="patch_121">
    <path d="M 329.227636 307.584 
L 331.392 307.584 
L 331.392 307.584 
L 329.227636 307.584 
z
" clip-path="url(#p3beb2ff66a)" style="fill: #1f77b4; stroke: #000000; stroke-linejoin: miter"/>
   </g>
   <g id="patch_122">
    <path d="M 331.392 307.584 
L 333.556364 307.584 
L 333.556364 307.584 
L 331.392 307.584 
z
" clip-path="url(#p3beb2ff66a)" style="fill: #1f77b4; stroke: #000000; stroke-linejoin: miter"/>
   </g>
   <g id="patch_123">
    <path d="M 333.556364 307.584 
L 335.720727 307.584 
L 335.720727 307.584 
L 333.556364 307.584 
z
" clip-path="url(#p3beb2ff66a)" style="fill: #1f77b4; stroke: #000000; stroke-linejoin: miter"/>
   </g>
   <g id="patch_124">
    <path d="M 335.720727 307.584 
L 337.885091 307.584 
L 337.885091 307.584 
L 335.720727 307.584 
z
" clip-path="url(#p3beb2ff66a)" style="fill: #1f77b4; stroke: #000000; stroke-linejoin: miter"/>
   </g>
   <g id="patch_125">
    <path d="M 337.885091 307.584 
L 340.049455 307.584 
L 340.049455 307.584 
L 337.885091 307.584 
z
" clip-path="url(#p3beb2ff66a)" style="fill: #1f77b4; stroke: #000000; stroke-linejoin: miter"/>
   </g>
   <g id="patch_126">
    <path d="M 340.049455 307.584 
L 342.213818 307.584 
L 342.213818 307.584 
L 340.049455 307.584 
z
" clip-path="url(#p3beb2ff66a)" style="fill: #1f77b4; stroke: #000000; stroke-linejoin: miter"/>
   </g>
   <g id="patch_127">
    <path d="M 342.213818 307.584 
L 344.378182 307.584 
L 344.378182 307.584 
L 342.213818 307.584 
z
" clip-path="url(#p3beb2ff66a)" style="fill: #1f77b4; stroke: #000000; stroke-linejoin: miter"/>
   </g>
   <g id="patch_128">
    <path d="M 344.378182 307.584 
L 346.542545 307.584 
L 346.542545 307.584 
L 344.378182 307.584 
z
" clip-path="url(#p3beb2ff66a)" style="fill: #1f77b4; stroke: #000000; stroke-linejoin: miter"/>
   </g>
   <g id="patch_129">
    <path d="M 346.542545 307.584 
L 348.706909 307.584 
L 348.706909 307.583485 
L 346.542545 307.583485 
z
" clip-path="url(#p3beb2ff66a)" style="fill: #1f77b4; stroke: #000000; stroke-linejoin: miter"/>
   </g>
   <g id="patch_130">
    <path d="M 348.706909 307.584 
L 350.871273 307.584 
L 350.871273 307.584 
L 348.706909 307.584 
z
" clip-path="url(#p3beb2ff66a)" style="fill: #1f77b4; stroke: #000000; stroke-linejoin: miter"/>
   </g>
   <g id="patch_131">
    <path d="M 350.871273 307.584 
L 353.035636 307.584 
L 353.035636 307.584 
L 350.871273 307.584 
z
" clip-path="url(#p3beb2ff66a)" style="fill: #1f77b4; stroke: #000000; stroke-linejoin: miter"/>
   </g>
   <g id="patch_132">
    <path d="M 353.035636 307.584 
L 355.2 307.584 
L 355.2 307.584 
L 353.035636 307.584 
z
" clip-path="url(#p3beb2ff66a)" style="fill: #1f77b4; stroke: #000000; stroke-linejoin: miter"/>
   </g>
   <g id="patch_133">
    <path d="M 355.2 307.584 
L 357.364364 307.584 
L 357.364364 307.583485 
L 355.2 307.583485 
z
" clip-path="url(#p3beb2ff66a)" style="fill: #1f77b4; stroke: #000000; stroke-linejoin: miter"/>
   </g>
   <g id="patch_134">
    <path d="M 357.364364 307.584 
L 359.528727 307.584 
L 359.528727 307.584 
L 357.364364 307.584 
z
" clip-path="url(#p3beb2ff66a)" style="fill: #1f77b4; stroke: #000000; stroke-linejoin: miter"/>
   </g>
   <g id="patch_135">
    <path d="M 359.528727 307.584 
L 361.693091 307.584 
L 361.693091 307.584 
L 359.528727 307.584 
z
" clip-path="url(#p3beb2ff66a)" style="fill: #1f77b4; stroke: #000000; stroke-linejoin: miter"/>
   </g>
   <g id="patch_136">
    <path d="M 361.693091 307.584 
L 363.857455 307.584 
L 363.857455 307.584 
L 361.693091 307.584 
z
" clip-path="url(#p3beb2ff66a)" style="fill: #1f77b4; stroke: #000000; stroke-linejoin: miter"/>
   </g>
   <g id="patch_137">
    <path d="M 363.857455 307.584 
L 366.021818 307.584 
L 366.021818 307.583485 
L 363.857455 307.583485 
z
" clip-path="url(#p3beb2ff66a)" style="fill: #1f77b4; stroke: #000000; stroke-linejoin: miter"/>
   </g>
   <g id="patch_138">
    <path d="M 366.021818 307.584 
L 368.186182 307.584 
L 368.186182 307.584 
L 366.021818 307.584 
z
" clip-path="url(#p3beb2ff66a)" style="fill: #1f77b4; stroke: #000000; stroke-linejoin: miter"/>
   </g>
   <g id="patch_139">
    <path d="M 368.186182 307.584 
L 370.350545 307.584 
L 370.350545 307.583485 
L 368.186182 307.583485 
z
" clip-path="url(#p3beb2ff66a)" style="fill: #1f77b4; stroke: #000000; stroke-linejoin: miter"/>
   </g>
   <g id="patch_140">
    <path d="M 370.350545 307.584 
L 372.514909 307.584 
L 372.514909 307.584 
L 370.350545 307.584 
z
" clip-path="url(#p3beb2ff66a)" style="fill: #1f77b4; stroke: #000000; stroke-linejoin: miter"/>
   </g>
   <g id="patch_141">
    <path d="M 372.514909 307.584 
L 374.679273 307.584 
L 374.679273 307.584 
L 372.514909 307.584 
z
" clip-path="url(#p3beb2ff66a)" style="fill: #1f77b4; stroke: #000000; stroke-linejoin: miter"/>
   </g>
   <g id="patch_142">
    <path d="M 374.679273 307.584 
L 376.843636 307.584 
L 376.843636 307.584 
L 374.679273 307.584 
z
" clip-path="url(#p3beb2ff66a)" style="fill: #1f77b4; stroke: #000000; stroke-linejoin: miter"/>
   </g>
   <g id="patch_143">
    <path d="M 376.843636 307.584 
L 379.008 307.584 
L 379.008 307.583485 
L 376.843636 307.583485 
z
" clip-path="url(#p3beb2ff66a)" style="fill: #1f77b4; stroke: #000000; stroke-linejoin: miter"/>
   </g>
   <g id="patch_144">
    <path d="M 379.008 307.584 
L 381.172364 307.584 
L 381.172364 307.584 
L 379.008 307.584 
z
" clip-path="url(#p3beb2ff66a)" style="fill: #1f77b4; stroke: #000000; stroke-linejoin: miter"/>
   </g>
   <g id="patch_145">
    <path d="M 381.172364 307.584 
L 383.336727 307.584 
L 383.336727 307.584 
L 381.172364 307.584 
z
" clip-path="url(#p3beb2ff66a)" style="fill: #1f77b4; stroke: #000000; stroke-linejoin: miter"/>
   </g>
   <g id="patch_146">
    <path d="M 383.336727 307.584 
L 385.501091 307.584 
L 385.501091 307.584 
L 383.336727 307.584 
z
" clip-path="url(#p3beb2ff66a)" style="fill: #1f77b4; stroke: #000000; stroke-linejoin: miter"/>
   </g>
   <g id="patch_147">
    <path d="M 385.501091 307.584 
L 387.665455 307.584 
L 387.665455 307.584 
L 385.501091 307.584 
z
" clip-path="url(#p3beb2ff66a)" style="fill: #1f77b4; stroke: #000000; stroke-linejoin: miter"/>
   </g>
   <g id="patch_148">
    <path d="M 387.665455 307.584 
L 389.829818 307.584 
L 389.829818 307.584 
L 387.665455 307.584 
z
" clip-path="url(#p3beb2ff66a)" style="fill: #1f77b4; stroke: #000000; stroke-linejoin: miter"/>
   </g>
   <g id="patch_149">
    <path d="M 389.829818 307.584 
L 391.994182 307.584 
L 391.994182 307.584 
L 389.829818 307.584 
z
" clip-path="url(#p3beb2ff66a)" style="fill: #1f77b4; stroke: #000000; stroke-linejoin: miter"/>
   </g>
   <g id="patch_150">
    <path d="M 391.994182 307.584 
L 394.158545 307.584 
L 394.158545 307.584 
L 391.994182 307.584 
z
" clip-path="url(#p3beb2ff66a)" style="fill: #1f77b4; stroke: #000000; stroke-linejoin: miter"/>
   </g>
   <g id="patch_151">
    <path d="M 394.158545 307.584 
L 396.322909 307.584 
L 396.322909 307.584 
L 394.158545 307.584 
z
" clip-path="url(#p3beb2ff66a)" style="fill: #1f77b4; stroke: #000000; stroke-linejoin: miter"/>
   </g>
   <g id="patch_152">
    <path d="M 396.322909 307.584 
L 398.487273 307.584 
L 398.487273 307.583485 
L 396.322909 307.583485 
z
" clip-path="url(#p3beb2ff66a)" style="fill: #1f77b4; stroke: #000000; stroke-linejoin: miter"/>
   </g>
   <g id="matplotlib.axis_1">
    <g id="xtick_1">
     <g id="line2d_1">
      <path d="M 73.832727 307.584 
L 73.832727 41.472 
" clip-path="url(#p3beb2ff66a)" style="fill: none; stroke: #b0b0b0; stroke-width: 0.8; stroke-linecap: square"/>
     </g>
     <g id="line2d_2">
      <defs>
       <path id="m76ff3b9c20" d="M 0 0 
L 0 3.5 
" style="stroke: #000000; stroke-width: 0.8"/>
      </defs>
      <g>
       <use xlink:href="#m76ff3b9c20" x="73.832727" y="307.584" style="stroke: #000000; stroke-width: 0.8"/>
      </g>
     </g>
     <g id="text_1">
      <!-- 0.0 -->
      <g transform="translate(65.881165 322.182437) scale(0.1 -0.1)">
       <defs>
        <path id="DejaVuSans-30" d="M 2034 4250 
Q 1547 4250 1301 3770 
Q 1056 3291 1056 2328 
Q 1056 1369 1301 889 
Q 1547 409 2034 409 
Q 2525 409 2770 889 
Q 3016 1369 3016 2328 
Q 3016 3291 2770 3770 
Q 2525 4250 2034 4250 
z
M 2034 4750 
Q 2819 4750 3233 4129 
Q 3647 3509 3647 2328 
Q 3647 1150 3233 529 
Q 2819 -91 2034 -91 
Q 1250 -91 836 529 
Q 422 1150 422 2328 
Q 422 3509 836 4129 
Q 1250 4750 2034 4750 
z
" transform="scale(0.015625)"/>
        <path id="DejaVuSans-2e" d="M 684 794 
L 1344 794 
L 1344 0 
L 684 0 
L 684 794 
z
" transform="scale(0.015625)"/>
       </defs>
       <use xlink:href="#DejaVuSans-30"/>
       <use xlink:href="#DejaVuSans-2e" transform="translate(63.623047 0)"/>
       <use xlink:href="#DejaVuSans-30" transform="translate(95.410156 0)"/>
      </g>
     </g>
    </g>
    <g id="xtick_2">
     <g id="line2d_3">
      <path d="M 123.729545 307.584 
L 123.729545 41.472 
" clip-path="url(#p3beb2ff66a)" style="fill: none; stroke: #b0b0b0; stroke-width: 0.8; stroke-linecap: square"/>
     </g>
     <g id="line2d_4">
      <g>
       <use xlink:href="#m76ff3b9c20" x="123.729545" y="307.584" style="stroke: #000000; stroke-width: 0.8"/>
      </g>
     </g>
     <g id="text_2">
      <!-- 0.5 -->
      <g transform="translate(115.777983 322.182437) scale(0.1 -0.1)">
       <defs>
        <path id="DejaVuSans-35" d="M 691 4666 
L 3169 4666 
L 3169 4134 
L 1269 4134 
L 1269 2991 
Q 1406 3038 1543 3061 
Q 1681 3084 1819 3084 
Q 2600 3084 3056 2656 
Q 3513 2228 3513 1497 
Q 3513 744 3044 326 
Q 2575 -91 1722 -91 
Q 1428 -91 1123 -41 
Q 819 9 494 109 
L 494 744 
Q 775 591 1075 516 
Q 1375 441 1709 441 
Q 2250 441 2565 725 
Q 2881 1009 2881 1497 
Q 2881 1984 2565 2268 
Q 2250 2553 1709 2553 
Q 1456 2553 1204 2497 
Q 953 2441 691 2322 
L 691 4666 
z
" transform="scale(0.015625)"/>
       </defs>
       <use xlink:href="#DejaVuSans-30"/>
       <use xlink:href="#DejaVuSans-2e" transform="translate(63.623047 0)"/>
       <use xlink:href="#DejaVuSans-35" transform="translate(95.410156 0)"/>
      </g>
     </g>
    </g>
    <g id="xtick_3">
     <g id="line2d_5">
      <path d="M 173.626363 307.584 
L 173.626363 41.472 
" clip-path="url(#p3beb2ff66a)" style="fill: none; stroke: #b0b0b0; stroke-width: 0.8; stroke-linecap: square"/>
     </g>
     <g id="line2d_6">
      <g>
       <use xlink:href="#m76ff3b9c20" x="173.626363" y="307.584" style="stroke: #000000; stroke-width: 0.8"/>
      </g>
     </g>
     <g id="text_3">
      <!-- 1.0 -->
      <g transform="translate(165.6748 322.182437) scale(0.1 -0.1)">
       <defs>
        <path id="DejaVuSans-31" d="M 794 531 
L 1825 531 
L 1825 4091 
L 703 3866 
L 703 4441 
L 1819 4666 
L 2450 4666 
L 2450 531 
L 3481 531 
L 3481 0 
L 794 0 
L 794 531 
z
" transform="scale(0.015625)"/>
       </defs>
       <use xlink:href="#DejaVuSans-31"/>
       <use xlink:href="#DejaVuSans-2e" transform="translate(63.623047 0)"/>
       <use xlink:href="#DejaVuSans-30" transform="translate(95.410156 0)"/>
      </g>
     </g>
    </g>
    <g id="xtick_4">
     <g id="line2d_7">
      <path d="M 223.523181 307.584 
L 223.523181 41.472 
" clip-path="url(#p3beb2ff66a)" style="fill: none; stroke: #b0b0b0; stroke-width: 0.8; stroke-linecap: square"/>
     </g>
     <g id="line2d_8">
      <g>
       <use xlink:href="#m76ff3b9c20" x="223.523181" y="307.584" style="stroke: #000000; stroke-width: 0.8"/>
      </g>
     </g>
     <g id="text_4">
      <!-- 1.5 -->
      <g transform="translate(215.571618 322.182437) scale(0.1 -0.1)">
       <use xlink:href="#DejaVuSans-31"/>
       <use xlink:href="#DejaVuSans-2e" transform="translate(63.623047 0)"/>
       <use xlink:href="#DejaVuSans-35" transform="translate(95.410156 0)"/>
      </g>
     </g>
    </g>
    <g id="xtick_5">
     <g id="line2d_9">
      <path d="M 273.419999 307.584 
L 273.419999 41.472 
" clip-path="url(#p3beb2ff66a)" style="fill: none; stroke: #b0b0b0; stroke-width: 0.8; stroke-linecap: square"/>
     </g>
     <g id="line2d_10">
      <g>
       <use xlink:href="#m76ff3b9c20" x="273.419999" y="307.584" style="stroke: #000000; stroke-width: 0.8"/>
      </g>
     </g>
     <g id="text_5">
      <!-- 2.0 -->
      <g transform="translate(265.468436 322.182437) scale(0.1 -0.1)">
       <defs>
        <path id="DejaVuSans-32" d="M 1228 531 
L 3431 531 
L 3431 0 
L 469 0 
L 469 531 
Q 828 903 1448 1529 
Q 2069 2156 2228 2338 
Q 2531 2678 2651 2914 
Q 2772 3150 2772 3378 
Q 2772 3750 2511 3984 
Q 2250 4219 1831 4219 
Q 1534 4219 1204 4116 
Q 875 4013 500 3803 
L 500 4441 
Q 881 4594 1212 4672 
Q 1544 4750 1819 4750 
Q 2544 4750 2975 4387 
Q 3406 4025 3406 3419 
Q 3406 3131 3298 2873 
Q 3191 2616 2906 2266 
Q 2828 2175 2409 1742 
Q 1991 1309 1228 531 
z
" transform="scale(0.015625)"/>
       </defs>
       <use xlink:href="#DejaVuSans-32"/>
       <use xlink:href="#DejaVuSans-2e" transform="translate(63.623047 0)"/>
       <use xlink:href="#DejaVuSans-30" transform="translate(95.410156 0)"/>
      </g>
     </g>
    </g>
    <g id="xtick_6">
     <g id="line2d_11">
      <path d="M 323.316816 307.584 
L 323.316816 41.472 
" clip-path="url(#p3beb2ff66a)" style="fill: none; stroke: #b0b0b0; stroke-width: 0.8; stroke-linecap: square"/>
     </g>
     <g id="line2d_12">
      <g>
       <use xlink:href="#m76ff3b9c20" x="323.316816" y="307.584" style="stroke: #000000; stroke-width: 0.8"/>
      </g>
     </g>
     <g id="text_6">
      <!-- 2.5 -->
      <g transform="translate(315.365254 322.182437) scale(0.1 -0.1)">
       <use xlink:href="#DejaVuSans-32"/>
       <use xlink:href="#DejaVuSans-2e" transform="translate(63.623047 0)"/>
       <use xlink:href="#DejaVuSans-35" transform="translate(95.410156 0)"/>
      </g>
     </g>
    </g>
    <g id="xtick_7">
     <g id="line2d_13">
      <path d="M 373.213634 307.584 
L 373.213634 41.472 
" clip-path="url(#p3beb2ff66a)" style="fill: none; stroke: #b0b0b0; stroke-width: 0.8; stroke-linecap: square"/>
     </g>
     <g id="line2d_14">
      <g>
       <use xlink:href="#m76ff3b9c20" x="373.213634" y="307.584" style="stroke: #000000; stroke-width: 0.8"/>
      </g>
     </g>
     <g id="text_7">
      <!-- 3.0 -->
      <g transform="translate(365.262072 322.182437) scale(0.1 -0.1)">
       <defs>
        <path id="DejaVuSans-33" d="M 2597 2516 
Q 3050 2419 3304 2112 
Q 3559 1806 3559 1356 
Q 3559 666 3084 287 
Q 2609 -91 1734 -91 
Q 1441 -91 1130 -33 
Q 819 25 488 141 
L 488 750 
Q 750 597 1062 519 
Q 1375 441 1716 441 
Q 2309 441 2620 675 
Q 2931 909 2931 1356 
Q 2931 1769 2642 2001 
Q 2353 2234 1838 2234 
L 1294 2234 
L 1294 2753 
L 1863 2753 
Q 2328 2753 2575 2939 
Q 2822 3125 2822 3475 
Q 2822 3834 2567 4026 
Q 2313 4219 1838 4219 
Q 1578 4219 1281 4162 
Q 984 4106 628 3988 
L 628 4550 
Q 988 4650 1302 4700 
Q 1616 4750 1894 4750 
Q 2613 4750 3031 4423 
Q 3450 4097 3450 3541 
Q 3450 3153 3228 2886 
Q 3006 2619 2597 2516 
z
" transform="scale(0.015625)"/>
       </defs>
       <use xlink:href="#DejaVuSans-33"/>
       <use xlink:href="#DejaVuSans-2e" transform="translate(63.623047 0)"/>
       <use xlink:href="#DejaVuSans-30" transform="translate(95.410156 0)"/>
      </g>
     </g>
    </g>
    <g id="text_8">
     <!-- Entropy -->
     <g transform="translate(216.735781 335.860562) scale(0.1 -0.1)">
      <defs>
       <path id="DejaVuSans-45" d="M 628 4666 
L 3578 4666 
L 3578 4134 
L 1259 4134 
L 1259 2753 
L 3481 2753 
L 3481 2222 
L 1259 2222 
L 1259 531 
L 3634 531 
L 3634 0 
L 628 0 
L 628 4666 
z
" transform="scale(0.015625)"/>
       <path id="DejaVuSans-6e" d="M 3513 2113 
L 3513 0 
L 2938 0 
L 2938 2094 
Q 2938 2591 2744 2837 
Q 2550 3084 2163 3084 
Q 1697 3084 1428 2787 
Q 1159 2491 1159 1978 
L 1159 0 
L 581 0 
L 581 3500 
L 1159 3500 
L 1159 2956 
Q 1366 3272 1645 3428 
Q 1925 3584 2291 3584 
Q 2894 3584 3203 3211 
Q 3513 2838 3513 2113 
z
" transform="scale(0.015625)"/>
       <path id="DejaVuSans-74" d="M 1172 4494 
L 1172 3500 
L 2356 3500 
L 2356 3053 
L 1172 3053 
L 1172 1153 
Q 1172 725 1289 603 
Q 1406 481 1766 481 
L 2356 481 
L 2356 0 
L 1766 0 
Q 1100 0 847 248 
Q 594 497 594 1153 
L 594 3053 
L 172 3053 
L 172 3500 
L 594 3500 
L 594 4494 
L 1172 4494 
z
" transform="scale(0.015625)"/>
       <path id="DejaVuSans-72" d="M 2631 2963 
Q 2534 3019 2420 3045 
Q 2306 3072 2169 3072 
Q 1681 3072 1420 2755 
Q 1159 2438 1159 1844 
L 1159 0 
L 581 0 
L 581 3500 
L 1159 3500 
L 1159 2956 
Q 1341 3275 1631 3429 
Q 1922 3584 2338 3584 
Q 2397 3584 2469 3576 
Q 2541 3569 2628 3553 
L 2631 2963 
z
" transform="scale(0.015625)"/>
       <path id="DejaVuSans-6f" d="M 1959 3097 
Q 1497 3097 1228 2736 
Q 959 2375 959 1747 
Q 959 1119 1226 758 
Q 1494 397 1959 397 
Q 2419 397 2687 759 
Q 2956 1122 2956 1747 
Q 2956 2369 2687 2733 
Q 2419 3097 1959 3097 
z
M 1959 3584 
Q 2709 3584 3137 3096 
Q 3566 2609 3566 1747 
Q 3566 888 3137 398 
Q 2709 -91 1959 -91 
Q 1206 -91 779 398 
Q 353 888 353 1747 
Q 353 2609 779 3096 
Q 1206 3584 1959 3584 
z
" transform="scale(0.015625)"/>
       <path id="DejaVuSans-70" d="M 1159 525 
L 1159 -1331 
L 581 -1331 
L 581 3500 
L 1159 3500 
L 1159 2969 
Q 1341 3281 1617 3432 
Q 1894 3584 2278 3584 
Q 2916 3584 3314 3078 
Q 3713 2572 3713 1747 
Q 3713 922 3314 415 
Q 2916 -91 2278 -91 
Q 1894 -91 1617 61 
Q 1341 213 1159 525 
z
M 3116 1747 
Q 3116 2381 2855 2742 
Q 2594 3103 2138 3103 
Q 1681 3103 1420 2742 
Q 1159 2381 1159 1747 
Q 1159 1113 1420 752 
Q 1681 391 2138 391 
Q 2594 391 2855 752 
Q 3116 1113 3116 1747 
z
" transform="scale(0.015625)"/>
       <path id="DejaVuSans-79" d="M 2059 -325 
Q 1816 -950 1584 -1140 
Q 1353 -1331 966 -1331 
L 506 -1331 
L 506 -850 
L 844 -850 
Q 1081 -850 1212 -737 
Q 1344 -625 1503 -206 
L 1606 56 
L 191 3500 
L 800 3500 
L 1894 763 
L 2988 3500 
L 3597 3500 
L 2059 -325 
z
" transform="scale(0.015625)"/>
      </defs>
      <use xlink:href="#DejaVuSans-45"/>
      <use xlink:href="#DejaVuSans-6e" transform="translate(63.183594 0)"/>
      <use xlink:href="#DejaVuSans-74" transform="translate(126.5625 0)"/>
      <use xlink:href="#DejaVuSans-72" transform="translate(165.771484 0)"/>
      <use xlink:href="#DejaVuSans-6f" transform="translate(204.634766 0)"/>
      <use xlink:href="#DejaVuSans-70" transform="translate(265.816406 0)"/>
      <use xlink:href="#DejaVuSans-79" transform="translate(329.292969 0)"/>
     </g>
    </g>
   </g>
   <g id="matplotlib.axis_2">
    <g id="ytick_1">
     <g id="line2d_15">
      <path d="M 57.6 307.584 
L 414.72 307.584 
" clip-path="url(#p3beb2ff66a)" style="fill: none; stroke: #b0b0b0; stroke-width: 0.8; stroke-linecap: square"/>
     </g>
     <g id="line2d_16">
      <defs>
       <path id="m94199e95aa" d="M 0 0 
L -3.5 0 
" style="stroke: #000000; stroke-width: 0.8"/>
      </defs>
      <g>
       <use xlink:href="#m94199e95aa" x="57.6" y="307.584" style="stroke: #000000; stroke-width: 0.8"/>
      </g>
     </g>
     <g id="text_9">
      <!-- 0 -->
      <g transform="translate(44.2375 311.383219) scale(0.1 -0.1)">
       <use xlink:href="#DejaVuSans-30"/>
      </g>
     </g>
    </g>
    <g id="ytick_2">
     <g id="line2d_17">
      <path d="M 57.6 256.111769 
L 414.72 256.111769 
" clip-path="url(#p3beb2ff66a)" style="fill: none; stroke: #b0b0b0; stroke-width: 0.8; stroke-linecap: square"/>
     </g>
     <g id="line2d_18">
      <g>
       <use xlink:href="#m94199e95aa" x="57.6" y="256.111769" style="stroke: #000000; stroke-width: 0.8"/>
      </g>
     </g>
     <g id="text_10">
      <!-- 100000 -->
      <g transform="translate(12.425 259.910988) scale(0.1 -0.1)">
       <use xlink:href="#DejaVuSans-31"/>
       <use xlink:href="#DejaVuSans-30" transform="translate(63.623047 0)"/>
       <use xlink:href="#DejaVuSans-30" transform="translate(127.246094 0)"/>
       <use xlink:href="#DejaVuSans-30" transform="translate(190.869141 0)"/>
       <use xlink:href="#DejaVuSans-30" transform="translate(254.492188 0)"/>
       <use xlink:href="#DejaVuSans-30" transform="translate(318.115234 0)"/>
      </g>
     </g>
    </g>
    <g id="ytick_3">
     <g id="line2d_19">
      <path d="M 57.6 204.639538 
L 414.72 204.639538 
" clip-path="url(#p3beb2ff66a)" style="fill: none; stroke: #b0b0b0; stroke-width: 0.8; stroke-linecap: square"/>
     </g>
     <g id="line2d_20">
      <g>
       <use xlink:href="#m94199e95aa" x="57.6" y="204.639538" style="stroke: #000000; stroke-width: 0.8"/>
      </g>
     </g>
     <g id="text_11">
      <!-- 200000 -->
      <g transform="translate(12.425 208.438757) scale(0.1 -0.1)">
       <use xlink:href="#DejaVuSans-32"/>
       <use xlink:href="#DejaVuSans-30" transform="translate(63.623047 0)"/>
       <use xlink:href="#DejaVuSans-30" transform="translate(127.246094 0)"/>
       <use xlink:href="#DejaVuSans-30" transform="translate(190.869141 0)"/>
       <use xlink:href="#DejaVuSans-30" transform="translate(254.492188 0)"/>
       <use xlink:href="#DejaVuSans-30" transform="translate(318.115234 0)"/>
      </g>
     </g>
    </g>
    <g id="ytick_4">
     <g id="line2d_21">
      <path d="M 57.6 153.167307 
L 414.72 153.167307 
" clip-path="url(#p3beb2ff66a)" style="fill: none; stroke: #b0b0b0; stroke-width: 0.8; stroke-linecap: square"/>
     </g>
     <g id="line2d_22">
      <g>
       <use xlink:href="#m94199e95aa" x="57.6" y="153.167307" style="stroke: #000000; stroke-width: 0.8"/>
      </g>
     </g>
     <g id="text_12">
      <!-- 300000 -->
      <g transform="translate(12.425 156.966526) scale(0.1 -0.1)">
       <use xlink:href="#DejaVuSans-33"/>
       <use xlink:href="#DejaVuSans-30" transform="translate(63.623047 0)"/>
       <use xlink:href="#DejaVuSans-30" transform="translate(127.246094 0)"/>
       <use xlink:href="#DejaVuSans-30" transform="translate(190.869141 0)"/>
       <use xlink:href="#DejaVuSans-30" transform="translate(254.492188 0)"/>
       <use xlink:href="#DejaVuSans-30" transform="translate(318.115234 0)"/>
      </g>
     </g>
    </g>
    <g id="ytick_5">
     <g id="line2d_23">
      <path d="M 57.6 101.695076 
L 414.72 101.695076 
" clip-path="url(#p3beb2ff66a)" style="fill: none; stroke: #b0b0b0; stroke-width: 0.8; stroke-linecap: square"/>
     </g>
     <g id="line2d_24">
      <g>
       <use xlink:href="#m94199e95aa" x="57.6" y="101.695076" style="stroke: #000000; stroke-width: 0.8"/>
      </g>
     </g>
     <g id="text_13">
      <!-- 400000 -->
      <g transform="translate(12.425 105.494295) scale(0.1 -0.1)">
       <defs>
        <path id="DejaVuSans-34" d="M 2419 4116 
L 825 1625 
L 2419 1625 
L 2419 4116 
z
M 2253 4666 
L 3047 4666 
L 3047 1625 
L 3713 1625 
L 3713 1100 
L 3047 1100 
L 3047 0 
L 2419 0 
L 2419 1100 
L 313 1100 
L 313 1709 
L 2253 4666 
z
" transform="scale(0.015625)"/>
       </defs>
       <use xlink:href="#DejaVuSans-34"/>
       <use xlink:href="#DejaVuSans-30" transform="translate(63.623047 0)"/>
       <use xlink:href="#DejaVuSans-30" transform="translate(127.246094 0)"/>
       <use xlink:href="#DejaVuSans-30" transform="translate(190.869141 0)"/>
       <use xlink:href="#DejaVuSans-30" transform="translate(254.492188 0)"/>
       <use xlink:href="#DejaVuSans-30" transform="translate(318.115234 0)"/>
      </g>
     </g>
    </g>
    <g id="ytick_6">
     <g id="line2d_25">
      <path d="M 57.6 50.222845 
L 414.72 50.222845 
" clip-path="url(#p3beb2ff66a)" style="fill: none; stroke: #b0b0b0; stroke-width: 0.8; stroke-linecap: square"/>
     </g>
     <g id="line2d_26">
      <g>
       <use xlink:href="#m94199e95aa" x="57.6" y="50.222845" style="stroke: #000000; stroke-width: 0.8"/>
      </g>
     </g>
     <g id="text_14">
      <!-- 500000 -->
      <g transform="translate(12.425 54.022064) scale(0.1 -0.1)">
       <use xlink:href="#DejaVuSans-35"/>
       <use xlink:href="#DejaVuSans-30" transform="translate(63.623047 0)"/>
       <use xlink:href="#DejaVuSans-30" transform="translate(127.246094 0)"/>
       <use xlink:href="#DejaVuSans-30" transform="translate(190.869141 0)"/>
       <use xlink:href="#DejaVuSans-30" transform="translate(254.492188 0)"/>
       <use xlink:href="#DejaVuSans-30" transform="translate(318.115234 0)"/>
      </g>
     </g>
    </g>
    <g id="text_15">
     <!-- Frequency -->
     <g transform="translate(6.345312 200.357687) rotate(-90) scale(0.1 -0.1)">
      <defs>
       <path id="DejaVuSans-46" d="M 628 4666 
L 3309 4666 
L 3309 4134 
L 1259 4134 
L 1259 2759 
L 3109 2759 
L 3109 2228 
L 1259 2228 
L 1259 0 
L 628 0 
L 628 4666 
z
" transform="scale(0.015625)"/>
       <path id="DejaVuSans-65" d="M 3597 1894 
L 3597 1613 
L 953 1613 
Q 991 1019 1311 708 
Q 1631 397 2203 397 
Q 2534 397 2845 478 
Q 3156 559 3463 722 
L 3463 178 
Q 3153 47 2828 -22 
Q 2503 -91 2169 -91 
Q 1331 -91 842 396 
Q 353 884 353 1716 
Q 353 2575 817 3079 
Q 1281 3584 2069 3584 
Q 2775 3584 3186 3129 
Q 3597 2675 3597 1894 
z
M 3022 2063 
Q 3016 2534 2758 2815 
Q 2500 3097 2075 3097 
Q 1594 3097 1305 2825 
Q 1016 2553 972 2059 
L 3022 2063 
z
" transform="scale(0.015625)"/>
       <path id="DejaVuSans-71" d="M 947 1747 
Q 947 1113 1208 752 
Q 1469 391 1925 391 
Q 2381 391 2643 752 
Q 2906 1113 2906 1747 
Q 2906 2381 2643 2742 
Q 2381 3103 1925 3103 
Q 1469 3103 1208 2742 
Q 947 2381 947 1747 
z
M 2906 525 
Q 2725 213 2448 61 
Q 2172 -91 1784 -91 
Q 1150 -91 751 415 
Q 353 922 353 1747 
Q 353 2572 751 3078 
Q 1150 3584 1784 3584 
Q 2172 3584 2448 3432 
Q 2725 3281 2906 2969 
L 2906 3500 
L 3481 3500 
L 3481 -1331 
L 2906 -1331 
L 2906 525 
z
" transform="scale(0.015625)"/>
       <path id="DejaVuSans-75" d="M 544 1381 
L 544 3500 
L 1119 3500 
L 1119 1403 
Q 1119 906 1312 657 
Q 1506 409 1894 409 
Q 2359 409 2629 706 
Q 2900 1003 2900 1516 
L 2900 3500 
L 3475 3500 
L 3475 0 
L 2900 0 
L 2900 538 
Q 2691 219 2414 64 
Q 2138 -91 1772 -91 
Q 1169 -91 856 284 
Q 544 659 544 1381 
z
M 1991 3584 
L 1991 3584 
z
" transform="scale(0.015625)"/>
       <path id="DejaVuSans-63" d="M 3122 3366 
L 3122 2828 
Q 2878 2963 2633 3030 
Q 2388 3097 2138 3097 
Q 1578 3097 1268 2742 
Q 959 2388 959 1747 
Q 959 1106 1268 751 
Q 1578 397 2138 397 
Q 2388 397 2633 464 
Q 2878 531 3122 666 
L 3122 134 
Q 2881 22 2623 -34 
Q 2366 -91 2075 -91 
Q 1284 -91 818 406 
Q 353 903 353 1747 
Q 353 2603 823 3093 
Q 1294 3584 2113 3584 
Q 2378 3584 2631 3529 
Q 2884 3475 3122 3366 
z
" transform="scale(0.015625)"/>
      </defs>
      <use xlink:href="#DejaVuSans-46"/>
      <use xlink:href="#DejaVuSans-72" transform="translate(50.269531 0)"/>
      <use xlink:href="#DejaVuSans-65" transform="translate(89.132812 0)"/>
      <use xlink:href="#DejaVuSans-71" transform="translate(150.65625 0)"/>
      <use xlink:href="#DejaVuSans-75" transform="translate(214.132812 0)"/>
      <use xlink:href="#DejaVuSans-65" transform="translate(277.511719 0)"/>
      <use xlink:href="#DejaVuSans-6e" transform="translate(339.035156 0)"/>
      <use xlink:href="#DejaVuSans-63" transform="translate(402.414062 0)"/>
      <use xlink:href="#DejaVuSans-79" transform="translate(457.394531 0)"/>
     </g>
    </g>
   </g>
   <g id="patch_153">
    <path d="M 57.6 307.584 
L 57.6 41.472 
" style="fill: none; stroke: #000000; stroke-width: 0.8; stroke-linejoin: miter; stroke-linecap: square"/>
   </g>
   <g id="patch_154">
    <path d="M 414.72 307.584 
L 414.72 41.472 
" style="fill: none; stroke: #000000; stroke-width: 0.8; stroke-linejoin: miter; stroke-linecap: square"/>
   </g>
   <g id="patch_155">
    <path d="M 57.6 307.584 
L 414.72 307.584 
" style="fill: none; stroke: #000000; stroke-width: 0.8; stroke-linejoin: miter; stroke-linecap: square"/>
   </g>
   <g id="patch_156">
    <path d="M 57.6 41.472 
L 414.72 41.472 
" style="fill: none; stroke: #000000; stroke-width: 0.8; stroke-linejoin: miter; stroke-linecap: square"/>
   </g>
   <g id="text_16">
    <!-- $H = -\sum p_{i}\log_{2} p_{i}$ -->
    <g transform="translate(100.92 178.968) scale(0.12 -0.12)">
     <defs>
      <path id="DejaVuSans-Oblique-48" d="M 1081 4666 
L 1716 4666 
L 1344 2753 
L 3634 2753 
L 4006 4666 
L 4641 4666 
L 3731 0 
L 3097 0 
L 3531 2222 
L 1241 2222 
L 806 0 
L 172 0 
L 1081 4666 
z
" transform="scale(0.015625)"/>
      <path id="DejaVuSans-3d" d="M 678 2906 
L 4684 2906 
L 4684 2381 
L 678 2381 
L 678 2906 
z
M 678 1631 
L 4684 1631 
L 4684 1100 
L 678 1100 
L 678 1631 
z
" transform="scale(0.015625)"/>
      <path id="DejaVuSans-2212" d="M 678 2272 
L 4684 2272 
L 4684 1741 
L 678 1741 
L 678 2272 
z
" transform="scale(0.015625)"/>
      <path id="DejaVuSansDisplay-2211" d="M 244 6509 
L 5803 6509 
L 5803 5656 
L 1566 5656 
L 4534 2488 
L 1469 -888 
L 5919 -888 
L 5919 -1738 
L 109 -1738 
L 109 -1078 
L 3316 2463 
L 244 5728 
L 244 6509 
z
" transform="scale(0.015625)"/>
      <path id="DejaVuSans-Oblique-70" d="M 3175 2156 
Q 3175 2616 2975 2859 
Q 2775 3103 2400 3103 
Q 2144 3103 1911 2972 
Q 1678 2841 1497 2591 
Q 1319 2344 1212 1994 
Q 1106 1644 1106 1300 
Q 1106 863 1306 627 
Q 1506 391 1875 391 
Q 2147 391 2380 519 
Q 2613 647 2778 891 
Q 2956 1147 3065 1494 
Q 3175 1841 3175 2156 
z
M 1394 2969 
Q 1625 3272 1939 3428 
Q 2253 3584 2638 3584 
Q 3175 3584 3472 3232 
Q 3769 2881 3769 2247 
Q 3769 1728 3584 1258 
Q 3400 788 3053 416 
Q 2822 169 2531 39 
Q 2241 -91 1919 -91 
Q 1547 -91 1294 64 
Q 1041 219 916 525 
L 556 -1331 
L -19 -1331 
L 922 3500 
L 1497 3500 
L 1394 2969 
z
" transform="scale(0.015625)"/>
      <path id="DejaVuSans-Oblique-69" d="M 1172 4863 
L 1747 4863 
L 1606 4134 
L 1031 4134 
L 1172 4863 
z
M 909 3500 
L 1484 3500 
L 800 0 
L 225 0 
L 909 3500 
z
" transform="scale(0.015625)"/>
      <path id="DejaVuSans-6c" d="M 603 4863 
L 1178 4863 
L 1178 0 
L 603 0 
L 603 4863 
z
" transform="scale(0.015625)"/>
      <path id="DejaVuSans-67" d="M 2906 1791 
Q 2906 2416 2648 2759 
Q 2391 3103 1925 3103 
Q 1463 3103 1205 2759 
Q 947 2416 947 1791 
Q 947 1169 1205 825 
Q 1463 481 1925 481 
Q 2391 481 2648 825 
Q 2906 1169 2906 1791 
z
M 3481 434 
Q 3481 -459 3084 -895 
Q 2688 -1331 1869 -1331 
Q 1566 -1331 1297 -1286 
Q 1028 -1241 775 -1147 
L 775 -588 
Q 1028 -725 1275 -790 
Q 1522 -856 1778 -856 
Q 2344 -856 2625 -561 
Q 2906 -266 2906 331 
L 2906 616 
Q 2728 306 2450 153 
Q 2172 0 1784 0 
Q 1141 0 747 490 
Q 353 981 353 1791 
Q 353 2603 747 3093 
Q 1141 3584 1784 3584 
Q 2172 3584 2450 3431 
Q 2728 3278 2906 2969 
L 2906 3500 
L 3481 3500 
L 3481 434 
z
" transform="scale(0.015625)"/>
     </defs>
     <use xlink:href="#DejaVuSans-Oblique-48" transform="translate(0 0.296875)"/>
     <use xlink:href="#DejaVuSans-3d" transform="translate(94.677734 0.296875)"/>
     <use xlink:href="#DejaVuSans-2212" transform="translate(197.949219 0.296875)"/>
     <use xlink:href="#DejaVuSansDisplay-2211" transform="translate(281.738281 0.296875)"/>
     <use xlink:href="#DejaVuSans-Oblique-70" transform="translate(377.001953 0.296875)"/>
     <use xlink:href="#DejaVuSans-Oblique-69" transform="translate(440.478516 -16.109375) scale(0.7)"/>
     <use xlink:href="#DejaVuSans-6c" transform="translate(462.661133 0.296875)"/>
     <use xlink:href="#DejaVuSans-6f" transform="translate(490.444336 0.296875)"/>
     <use xlink:href="#DejaVuSans-67" transform="translate(551.625977 0.296875)"/>
     <use xlink:href="#DejaVuSans-32" transform="translate(616.05957 -16.109375) scale(0.7)"/>
     <use xlink:href="#DejaVuSans-Oblique-70" transform="translate(679.565754 0.296875)"/>
     <use xlink:href="#DejaVuSans-Oblique-69" transform="translate(743.042317 -16.109375) scale(0.7)"/>
    </g>
   </g>
   <g id="text_17">
    <!-- Distribution of Shannon Entropy (150 bins) -->
    <g transform="translate(107.625 35.472) scale(0.12 -0.12)">
     <defs>
      <path id="DejaVuSans-44" d="M 1259 4147 
L 1259 519 
L 2022 519 
Q 2988 519 3436 956 
Q 3884 1394 3884 2338 
Q 3884 3275 3436 3711 
Q 2988 4147 2022 4147 
L 1259 4147 
z
M 628 4666 
L 1925 4666 
Q 3281 4666 3915 4102 
Q 4550 3538 4550 2338 
Q 4550 1131 3912 565 
Q 3275 0 1925 0 
L 628 0 
L 628 4666 
z
" transform="scale(0.015625)"/>
      <path id="DejaVuSans-69" d="M 603 3500 
L 1178 3500 
L 1178 0 
L 603 0 
L 603 3500 
z
M 603 4863 
L 1178 4863 
L 1178 4134 
L 603 4134 
L 603 4863 
z
" transform="scale(0.015625)"/>
      <path id="DejaVuSans-73" d="M 2834 3397 
L 2834 2853 
Q 2591 2978 2328 3040 
Q 2066 3103 1784 3103 
Q 1356 3103 1142 2972 
Q 928 2841 928 2578 
Q 928 2378 1081 2264 
Q 1234 2150 1697 2047 
L 1894 2003 
Q 2506 1872 2764 1633 
Q 3022 1394 3022 966 
Q 3022 478 2636 193 
Q 2250 -91 1575 -91 
Q 1294 -91 989 -36 
Q 684 19 347 128 
L 347 722 
Q 666 556 975 473 
Q 1284 391 1588 391 
Q 1994 391 2212 530 
Q 2431 669 2431 922 
Q 2431 1156 2273 1281 
Q 2116 1406 1581 1522 
L 1381 1569 
Q 847 1681 609 1914 
Q 372 2147 372 2553 
Q 372 3047 722 3315 
Q 1072 3584 1716 3584 
Q 2034 3584 2315 3537 
Q 2597 3491 2834 3397 
z
" transform="scale(0.015625)"/>
      <path id="DejaVuSans-62" d="M 3116 1747 
Q 3116 2381 2855 2742 
Q 2594 3103 2138 3103 
Q 1681 3103 1420 2742 
Q 1159 2381 1159 1747 
Q 1159 1113 1420 752 
Q 1681 391 2138 391 
Q 2594 391 2855 752 
Q 3116 1113 3116 1747 
z
M 1159 2969 
Q 1341 3281 1617 3432 
Q 1894 3584 2278 3584 
Q 2916 3584 3314 3078 
Q 3713 2572 3713 1747 
Q 3713 922 3314 415 
Q 2916 -91 2278 -91 
Q 1894 -91 1617 61 
Q 1341 213 1159 525 
L 1159 0 
L 581 0 
L 581 4863 
L 1159 4863 
L 1159 2969 
z
" transform="scale(0.015625)"/>
      <path id="DejaVuSans-20" transform="scale(0.015625)"/>
      <path id="DejaVuSans-66" d="M 2375 4863 
L 2375 4384 
L 1825 4384 
Q 1516 4384 1395 4259 
Q 1275 4134 1275 3809 
L 1275 3500 
L 2222 3500 
L 2222 3053 
L 1275 3053 
L 1275 0 
L 697 0 
L 697 3053 
L 147 3053 
L 147 3500 
L 697 3500 
L 697 3744 
Q 697 4328 969 4595 
Q 1241 4863 1831 4863 
L 2375 4863 
z
" transform="scale(0.015625)"/>
      <path id="DejaVuSans-53" d="M 3425 4513 
L 3425 3897 
Q 3066 4069 2747 4153 
Q 2428 4238 2131 4238 
Q 1616 4238 1336 4038 
Q 1056 3838 1056 3469 
Q 1056 3159 1242 3001 
Q 1428 2844 1947 2747 
L 2328 2669 
Q 3034 2534 3370 2195 
Q 3706 1856 3706 1288 
Q 3706 609 3251 259 
Q 2797 -91 1919 -91 
Q 1588 -91 1214 -16 
Q 841 59 441 206 
L 441 856 
Q 825 641 1194 531 
Q 1563 422 1919 422 
Q 2459 422 2753 634 
Q 3047 847 3047 1241 
Q 3047 1584 2836 1778 
Q 2625 1972 2144 2069 
L 1759 2144 
Q 1053 2284 737 2584 
Q 422 2884 422 3419 
Q 422 4038 858 4394 
Q 1294 4750 2059 4750 
Q 2388 4750 2728 4690 
Q 3069 4631 3425 4513 
z
" transform="scale(0.015625)"/>
      <path id="DejaVuSans-68" d="M 3513 2113 
L 3513 0 
L 2938 0 
L 2938 2094 
Q 2938 2591 2744 2837 
Q 2550 3084 2163 3084 
Q 1697 3084 1428 2787 
Q 1159 2491 1159 1978 
L 1159 0 
L 581 0 
L 581 4863 
L 1159 4863 
L 1159 2956 
Q 1366 3272 1645 3428 
Q 1925 3584 2291 3584 
Q 2894 3584 3203 3211 
Q 3513 2838 3513 2113 
z
" transform="scale(0.015625)"/>
      <path id="DejaVuSans-61" d="M 2194 1759 
Q 1497 1759 1228 1600 
Q 959 1441 959 1056 
Q 959 750 1161 570 
Q 1363 391 1709 391 
Q 2188 391 2477 730 
Q 2766 1069 2766 1631 
L 2766 1759 
L 2194 1759 
z
M 3341 1997 
L 3341 0 
L 2766 0 
L 2766 531 
Q 2569 213 2275 61 
Q 1981 -91 1556 -91 
Q 1019 -91 701 211 
Q 384 513 384 1019 
Q 384 1609 779 1909 
Q 1175 2209 1959 2209 
L 2766 2209 
L 2766 2266 
Q 2766 2663 2505 2880 
Q 2244 3097 1772 3097 
Q 1472 3097 1187 3025 
Q 903 2953 641 2809 
L 641 3341 
Q 956 3463 1253 3523 
Q 1550 3584 1831 3584 
Q 2591 3584 2966 3190 
Q 3341 2797 3341 1997 
z
" transform="scale(0.015625)"/>
      <path id="DejaVuSans-28" d="M 1984 4856 
Q 1566 4138 1362 3434 
Q 1159 2731 1159 2009 
Q 1159 1288 1364 580 
Q 1569 -128 1984 -844 
L 1484 -844 
Q 1016 -109 783 600 
Q 550 1309 550 2009 
Q 550 2706 781 3412 
Q 1013 4119 1484 4856 
L 1984 4856 
z
" transform="scale(0.015625)"/>
      <path id="DejaVuSans-29" d="M 513 4856 
L 1013 4856 
Q 1481 4119 1714 3412 
Q 1947 2706 1947 2009 
Q 1947 1309 1714 600 
Q 1481 -109 1013 -844 
L 513 -844 
Q 928 -128 1133 580 
Q 1338 1288 1338 2009 
Q 1338 2731 1133 3434 
Q 928 4138 513 4856 
z
" transform="scale(0.015625)"/>
     </defs>
     <use xlink:href="#DejaVuSans-44"/>
     <use xlink:href="#DejaVuSans-69" transform="translate(77.001953 0)"/>
     <use xlink:href="#DejaVuSans-73" transform="translate(104.785156 0)"/>
     <use xlink:href="#DejaVuSans-74" transform="translate(156.884766 0)"/>
     <use xlink:href="#DejaVuSans-72" transform="translate(196.09375 0)"/>
     <use xlink:href="#DejaVuSans-69" transform="translate(237.207031 0)"/>
     <use xlink:href="#DejaVuSans-62" transform="translate(264.990234 0)"/>
     <use xlink:href="#DejaVuSans-75" transform="translate(328.466797 0)"/>
     <use xlink:href="#DejaVuSans-74" transform="translate(391.845703 0)"/>
     <use xlink:href="#DejaVuSans-69" transform="translate(431.054688 0)"/>
     <use xlink:href="#DejaVuSans-6f" transform="translate(458.837891 0)"/>
     <use xlink:href="#DejaVuSans-6e" transform="translate(520.019531 0)"/>
     <use xlink:href="#DejaVuSans-20" transform="translate(583.398438 0)"/>
     <use xlink:href="#DejaVuSans-6f" transform="translate(615.185547 0)"/>
     <use xlink:href="#DejaVuSans-66" transform="translate(676.367188 0)"/>
     <use xlink:href="#DejaVuSans-20" transform="translate(711.572266 0)"/>
     <use xlink:href="#DejaVuSans-53" transform="translate(743.359375 0)"/>
     <use xlink:href="#DejaVuSans-68" transform="translate(806.835938 0)"/>
     <use xlink:href="#DejaVuSans-61" transform="translate(870.214844 0)"/>
     <use xlink:href="#DejaVuSans-6e" transform="translate(931.494141 0)"/>
     <use xlink:href="#DejaVuSans-6e" transform="translate(994.873047 0)"/>
     <use xlink:href="#DejaVuSans-6f" transform="translate(1058.251953 0)"/>
     <use xlink:href="#DejaVuSans-6e" transform="translate(1119.433594 0)"/>
     <use xlink:href="#DejaVuSans-20" transform="translate(1182.8125 0)"/>
     <use xlink:href="#DejaVuSans-45" transform="translate(1214.599609 0)"/>
     <use xlink:href="#DejaVuSans-6e" transform="translate(1277.783203 0)"/>
     <use xlink:href="#DejaVuSans-74" transform="translate(1341.162109 0)"/>
     <use xlink:href="#DejaVuSans-72" transform="translate(1380.371094 0)"/>
     <use xlink:href="#DejaVuSans-6f" transform="translate(1419.234375 0)"/>
     <use xlink:href="#DejaVuSans-70" transform="translate(1480.416016 0)"/>
     <use xlink:href="#DejaVuSans-79" transform="translate(1543.892578 0)"/>
     <use xlink:href="#DejaVuSans-20" transform="translate(1603.072266 0)"/>
     <use xlink:href="#DejaVuSans-28" transform="translate(1634.859375 0)"/>
     <use xlink:href="#DejaVuSans-31" transform="translate(1673.873047 0)"/>
     <use xlink:href="#DejaVuSans-35" transform="translate(1737.496094 0)"/>
     <use xlink:href="#DejaVuSans-30" transform="translate(1801.119141 0)"/>
     <use xlink:href="#DejaVuSans-20" transform="translate(1864.742188 0)"/>
     <use xlink:href="#DejaVuSans-62" transform="translate(1896.529297 0)"/>
     <use xlink:href="#DejaVuSans-69" transform="translate(1960.005859 0)"/>
     <use xlink:href="#DejaVuSans-6e" transform="translate(1987.789062 0)"/>
     <use xlink:href="#DejaVuSans-73" transform="translate(2051.167969 0)"/>
     <use xlink:href="#DejaVuSans-29" transform="translate(2103.267578 0)"/>
    </g>
   </g>
  </g>
 </g>
 <defs>
  <clipPath id="p3beb2ff66a">
   <rect x="57.6" y="41.472" width="357.12" height="266.112"/>
  </clipPath>
 </defs>
</svg>
